PathFileType	4	(X/Y/Z)	 s08c0103.trc
DataRate	CameraRate	NumFrames	NumMarkers	Units	OrigDataRate	OrigDataStartFrame	OrigNumFrames
200	200	4	50	mm	200	251	2000
Frame#	Time	racr			lacr			c7			jug			rlel			rdr			llel			ldr			s2			lic			ric			lasi			rasi			rpsi			lpsi			rgt			lgt			rth1			rth2			rth3			rth4			rlfc			rmfc			rsh1			rsh2			rsh3			rsh4			rlmal			rmmal			rcal			rtoe			rmt5			lth1			lth2			lth4			lth3			llfc			lmfc			llmal			lmmal			lcal			lmt5			lsh1			lsh2			lsh3			lsh4			ltoe			SBIKE			LBIKE			RBIKE			
		X1	Y1	Z1	X2	Y2	Z2	X3	Y3	Z3	X4	Y4	Z4	X5	Y5	Z5	X6	Y6	Z6	X7	Y7	Z7	X8	Y8	Z8	X9	Y9	Z9	X10	Y10	Z10	X11	Y11	Z11	X12	Y12	Z12	X13	Y13	Z13	X14	Y14	Z14	X15	Y15	Z15	X16	Y16	Z16	X17	Y17	Z17	X18	Y18	Z18	X19	Y19	Z19	X20	Y20	Z20	X21	Y21	Z21	X22	Y22	Z22	X23	Y23	Z23	X24	Y24	Z24	X25	Y25	Z25	X26	Y26	Z26	X27	Y27	Z27	X28	Y28	Z28	X29	Y29	Z29	X30	Y30	Z30	X31	Y31	Z31	X32	Y32	Z32	X33	Y33	Z33	X34	Y34	Z34	X35	Y35	Z35	X36	Y36	Z36	X37	Y37	Z37	X38	Y38	Z38	X39	Y39	Z39	X40	Y40	Z40	X41	Y41	Z41	X42	Y42	Z42	X43	Y43	Z43	X44	Y44	Z44	X45	Y45	Z45	X46	Y46	Z46	X47	Y47	Z47	X48	Y48	Z48	X49	Y49	Z49	X50	Y50	Z50	
251	1.2550	526.408089	1349.471568	-40.306354	527.526314	1356.286307	-383.692835	516.395994	1416.504265	-215.908446	487.533936	1262.205643	-208.731956	604.624524	1112.576651	30.555964	807.774332	891.003765	-51.325739	647.738280	1134.689446	-431.571470	821.411992	892.123801	-387.044951	-42.144397	1205.040333	-235.706418	135.502681	1169.861582	-371.743584	115.869327	1202.156792	-66.507806	147.880358	1110.539837	-342.233515	130.829268	1147.250972	-98.973474	-10.132229	1247.012770	-186.349682	-0.195102	1242.580071	-280.530123	29.797022	1115.273639	-24.214425	36.014255	1063.720675	-405.348811	175.596377	1026.764063	-20.473895	262.447553	1008.232593	-21.019295	326.557198	948.065575	-25.971703	278.916541	1039.182209	-33.630696	423.687511	878.724740	-45.475350	408.008934	867.686984	-153.297113	358.011680	765.636667	-17.551025	350.674133	677.671073	-38.461920	300.636433	607.570636	-45.658480	377.237264	673.967281	-69.632970	255.379452	497.572037	-59.503771	270.280404	524.490862	-146.428895	180.783397	453.111576	-103.322011	475.334530	506.383878	-95.907492	392.973339	456.793038	-30.727808	63.215619	930.384216	-423.268205	97.669592	850.020012	-418.341239	132.528398	855.315621	-407.873788	86.156295	761.902170	-413.803970	97.491779	635.555529	-387.374295	89.796563	613.471328	-286.952723	13.451179	220.903223	-392.613541	26.847598	246.680630	-305.900311	-47.374178	169.761343	-354.844508	165.727744	195.320307	-413.244998	70.934514	508.851781	-418.894632	71.316409	424.742320	-398.265129	35.398248	344.364349	-403.482639	88.440896	425.248840	-363.447446	229.208097	253.109853	-342.837587	-185.162997	919.942552	-227.457032	16.903589	83.676097	-424.569783	9.740058	80.280252	-26.408934	
252	1.2600	526.337846	1349.437580	-40.290999	527.490465	1356.250642	-383.735194	516.344346	1416.472220	-215.873675	487.601784	1262.243410	-208.511225	604.594306	1112.535543	30.582163	807.783638	891.018970	-51.302234	647.666785	1134.651864	-431.640490	821.401956	892.121121	-387.026273	-42.149488	1205.023452	-235.675993	135.489306	1169.878475	-371.778528	115.843394	1202.178274	-66.442255	147.848061	1110.561618	-342.292229	130.819659	1147.250372	-98.909576	-10.177472	1247.006025	-186.320335	-0.235202	1242.572436	-280.498277	29.804086	1115.254834	-24.190198	35.990353	1063.733792	-405.359762	175.602097	1026.762323	-20.466307	262.461448	1008.232587	-20.980117	326.575194	948.065205	-25.909963	278.925036	1039.176946	-33.596758	423.694827	878.742417	-45.435176	408.007815	867.680759	-153.293300	358.041772	765.640496	-17.509332	350.661698	677.642988	-38.459579	300.676285	607.571700	-45.619204	377.239412	673.961690	-69.628418	255.401737	497.585099	-59.469281	270.276764	524.463538	-146.409084	180.798879	453.105903	-103.295783	475.365246	506.379007	-95.901653	392.970634	456.801324	-30.704527	63.194027	930.397793	-423.284798	97.647001	850.045830	-418.356983	132.511854	855.333807	-407.884226	86.176795	761.903751	-413.813774	97.502841	635.571739	-387.400183	89.826328	613.476847	-286.951358	13.445648	220.902972	-392.602847	26.868915	246.706259	-305.876128	-47.393233	169.790630	-354.863048	165.726232	195.328088	-413.247492	70.925200	508.855873	-418.895928	71.305307	424.724399	-398.243704	35.387268	344.379380	-403.510704	88.443159	425.269354	-363.458938	229.191824	253.109736	-342.841381	-185.320430	919.933117	-227.569644	16.905141	83.684873	-424.578561	9.783551	80.289355	-26.405043	
253	1.2650	526.311503	1349.402937	-40.272756	527.444109	1356.190951	-383.715575	516.280665	1416.436154	-215.834515	487.533848	1262.186962	-208.519832	604.559307	1112.512781	30.600136	807.791399	891.026403	-51.279563	647.597432	1134.603487	-431.724572	821.403890	892.120360	-387.015830	-42.240714	1204.955845	-235.560666	135.434649	1169.894088	-371.765588	115.840085	1202.154995	-66.402863	147.792284	1110.576656	-342.277980	130.804874	1147.243089	-98.906350	-10.205041	1246.969850	-186.279800	-0.274111	1242.582574	-280.457806	29.784821	1115.246500	-24.181574	35.951187	1063.739347	-405.345947	175.594865	1026.724819	-20.441859	262.471696	1008.225349	-20.964772	326.592803	948.060523	-25.869594	278.947065	1039.177577	-33.590656	423.709220	878.736282	-45.396297	407.999129	867.671621	-153.271856	358.060529	765.638251	-17.475006	350.683875	677.639583	-38.438336	300.719087	607.583930	-45.540901	377.239559	673.966695	-69.607601	255.433653	497.573865	-59.442173	270.283280	524.459038	-146.432480	180.805626	453.092899	-103.279638	475.378545	506.372761	-95.888281	393.005667	456.806237	-30.690282	63.188240	930.414420	-423.288805	97.663657	850.061940	-418.353849	132.514697	855.353879	-407.892568	86.181674	761.918187	-413.813980	97.500456	635.577044	-387.398883	89.819908	613.492233	-286.953400	13.424497	220.909614	-392.615496	26.882178	246.709437	-305.845445	-47.402453	169.784010	-354.847178	165.723547	195.340515	-413.241682	70.932521	508.864853	-418.891672	71.306739	424.753617	-398.261270	35.390894	344.367919	-403.490006	88.449100	425.277898	-363.475243	229.178889	253.133585	-342.840408	-185.318227	919.912078	-227.592595	16.898155	83.658009	-424.571307	9.802271	80.289441	-26.395583	
254	1.2700	526.237337	1349.361335	-40.282295	527.399305	1356.140997	-383.704336	516.217452	1416.411867	-215.816279	487.462451	1262.114825	-208.473925	604.515817	1112.491295	30.639103	807.801162	891.035464	-51.263673	647.529615	1134.561487	-431.819510	821.373049	892.117928	-387.006964	-42.274670	1204.937738	-235.526887	135.395900	1169.918834	-371.803781	115.805187	1202.160304	-66.369221	147.756370	1110.614835	-342.326785	130.738632	1147.255368	-98.815511	-10.267454	1246.974480	-186.254595	-0.321597	1242.574646	-280.418491	29.866495	1115.230848	-24.058944	35.901128	1063.760363	-405.360064	175.583693	1026.709738	-20.422662	262.478618	1008.211643	-20.918852	326.601393	948.048264	-25.838537	278.923732	1039.141183	-33.569660	423.707906	878.744284	-45.374718	407.970917	867.657547	-153.249089	358.077302	765.619412	-17.448143	350.657418	677.623174	-38.417886	300.732793	607.576143	-45.538888	377.235501	673.971999	-69.606268	255.456271	497.575106	-59.425243	270.272977	524.445134	-146.415705	180.818781	453.075188	-103.277547	475.408090	506.371488	-95.847518	393.038718	456.787380	-30.677291	63.171875	930.426616	-423.298586	97.650666	850.078348	-418.367237	132.515749	855.394314	-407.914648	86.186271	761.934420	-413.821788	97.488616	635.587795	-387.392544	89.828199	613.498745	-286.949871	13.403741	220.928375	-392.613290	26.890721	246.731216	-305.850173	-47.398395	169.800366	-354.856280	165.697370	195.342977	-413.248847	70.900921	508.882333	-418.912236	71.289649	424.736985	-398.265811	35.374874	344.406822	-403.509666	88.431500	425.304299	-363.495148	229.183839	253.130267	-342.837058	-185.352232	919.880690	-227.544731	16.904591	83.661433	-424.593997	9.796685	80.300660	-26.373261	
